<?xml version="1.0" encoding="UTF-8"?>
<svg id="Layer_2" data-name="Layer 2" xmlns="http://www.w3.org/2000/svg" viewBox="0 0 3123 903.68">
  <defs>
    <style>
      .cls-1 {
        fill: #500;
      }

      .cls-2 {
        fill: #900;
        stroke: #fff;
        stroke-miterlimit: 10;
        stroke-width: 14px;
      }

      .cls-3 {
        fill: #fff;
      }
    </style>
  </defs>
  <g id="Layer_1-2" data-name="Layer 1">
    <rect class="cls-1" width="3123" height="903.68" rx="220.19" ry="220.19"/>
    <g>
      <g>
        <g>
          <path class="cls-3" d="M1444.18,353.41c-13.71,0-27.27-2.5-40.65-7.5-13.39-5-25.33-11.94-35.81-20.81l23.23-30.25c10.32,8.39,19.84,14.4,28.55,18.03,8.71,3.63,17.99,5.44,27.83,5.44,6.45,0,11.94-.64,16.46-1.94,4.51-1.29,7.99-3.18,10.4-5.69,2.42-2.5,3.63-5.44,3.63-8.83,0-4.68-1.78-8.31-5.32-10.89-3.55-2.58-9.6-4.6-18.15-6.05l-37.27-6.53c-13.71-2.42-24.28-7.66-31.7-15.73-7.42-8.06-11.13-18.31-11.13-30.73,0-10.97,2.78-20.41,8.35-28.31,5.57-7.9,13.55-13.95,23.96-18.15,10.41-4.19,22.78-6.29,37.14-6.29,12.58,0,25.25,2.14,37.99,6.41,12.74,4.28,23.79,10.21,33.15,17.79l-22.02,30.73c-17.42-13.39-34.77-20.09-52.03-20.09-5.65,0-10.53.61-14.64,1.82s-7.26,2.9-9.44,5.08c-2.18,2.18-3.27,4.8-3.27,7.86,0,4.2,1.57,7.42,4.72,9.68,3.15,2.26,8.26,4.03,15.37,5.32l35.09,5.81c16.29,2.58,28.68,7.99,37.15,16.21,8.47,8.23,12.7,18.87,12.7,31.94,0,11.46-2.99,21.34-8.95,29.64-5.97,8.31-14.52,14.72-25.65,19.24-11.13,4.51-24.36,6.78-39.69,6.78Z"/>
          <path class="cls-3" d="M1531.54,350.99v-169.39h41.62v132.61h89.29v36.78h-130.92Z"/>
          <path class="cls-3" d="M1753.2,353.65c-12.75,0-24.6-2.22-35.57-6.65-10.97-4.44-20.57-10.65-28.8-18.63-8.23-7.99-14.64-17.26-19.24-27.83-4.6-10.56-6.9-21.98-6.9-34.24s2.3-23.67,6.9-34.24c4.6-10.56,11.01-19.84,19.24-27.83,8.23-7.99,17.82-14.19,28.8-18.63,10.97-4.44,22.83-6.65,35.57-6.65s24.6,2.22,35.57,6.65c10.97,4.44,20.57,10.65,28.8,18.63,8.23,7.99,14.64,17.26,19.24,27.83,4.6,10.57,6.9,21.98,6.9,34.24s-2.3,23.68-6.9,34.24c-4.6,10.57-11.01,19.84-19.24,27.83-8.23,7.99-17.83,14.2-28.8,18.63-10.97,4.44-22.83,6.65-35.57,6.65ZM1753.2,315.41c6.78,0,13.07-1.25,18.88-3.75,5.81-2.5,10.85-5.93,15.12-10.28,4.27-4.36,7.62-9.56,10.04-15.61,2.42-6.05,3.63-12.54,3.63-19.48s-1.21-13.63-3.63-19.6c-2.42-5.97-5.77-11.13-10.04-15.49-4.28-4.36-9.32-7.78-15.12-10.28-5.81-2.5-12.1-3.75-18.88-3.75s-13.07,1.25-18.87,3.75c-5.81,2.5-10.85,5.93-15.12,10.28-4.28,4.36-7.62,9.52-10.04,15.49-2.42,5.97-3.63,12.5-3.63,19.6s1.21,13.43,3.63,19.48c2.42,6.05,5.77,11.25,10.04,15.61,4.27,4.36,9.32,7.78,15.12,10.28,5.81,2.5,12.1,3.75,18.87,3.75Z"/>
          <path class="cls-3" d="M1859.67,350.99v-169.39h83.97c11.62,0,21.82,2.02,30.61,6.05,8.79,4.03,15.69,9.64,20.69,16.82,5,7.18,7.5,15.45,7.5,24.8,0,6.94-1.74,13.43-5.2,19.48-3.47,6.05-8.19,11.17-14.16,15.37,7.58,4.03,13.59,9.28,18.03,15.73,4.44,6.45,6.65,13.55,6.65,21.29,0,9.84-2.5,18.51-7.5,26.01-5,7.5-12.02,13.35-21.05,17.54-9.04,4.2-19.52,6.29-31.46,6.29h-88.08ZM1901.29,249.11h39.69c6.13,0,10.97-1.53,14.52-4.6,3.55-3.06,5.32-7.1,5.32-12.1s-1.78-9.23-5.32-12.22c-3.55-2.98-8.39-4.48-14.52-4.48h-39.69v33.39ZM1901.29,316.87h43.32c6.45,0,11.57-1.61,15.37-4.84,3.79-3.23,5.69-7.58,5.69-13.07s-1.9-9.84-5.69-13.07c-3.79-3.23-8.92-4.84-15.37-4.84h-43.32v35.81Z"/>
          <path class="cls-3" d="M2106.26,353.65c-12.75,0-24.6-2.22-35.57-6.65-10.97-4.44-20.57-10.65-28.8-18.63-8.23-7.99-14.64-17.26-19.24-27.83-4.6-10.56-6.9-21.98-6.9-34.24s2.3-23.67,6.9-34.24c4.6-10.56,11.01-19.84,19.24-27.83,8.23-7.99,17.82-14.19,28.8-18.63,10.97-4.44,22.83-6.65,35.57-6.65s24.6,2.22,35.57,6.65c10.97,4.44,20.57,10.65,28.8,18.63,8.23,7.99,14.64,17.26,19.24,27.83,4.6,10.57,6.9,21.98,6.9,34.24s-2.3,23.68-6.9,34.24c-4.6,10.57-11.01,19.84-19.24,27.83-8.23,7.99-17.83,14.2-28.8,18.63-10.97,4.44-22.83,6.65-35.57,6.65ZM2106.26,315.41c6.78,0,13.07-1.25,18.88-3.75,5.81-2.5,10.85-5.93,15.12-10.28,4.27-4.36,7.62-9.56,10.04-15.61s3.63-12.54,3.63-19.48-1.21-13.63-3.63-19.6c-2.42-5.97-5.77-11.13-10.04-15.49-4.28-4.36-9.32-7.78-15.12-10.28-5.81-2.5-12.1-3.75-18.88-3.75s-13.07,1.25-18.87,3.75c-5.81,2.5-10.85,5.93-15.12,10.28-4.28,4.36-7.62,9.52-10.04,15.49-2.42,5.97-3.63,12.5-3.63,19.6s1.21,13.43,3.63,19.48,5.77,11.25,10.04,15.61c4.27,4.36,9.32,7.78,15.12,10.28,5.81,2.5,12.1,3.75,18.87,3.75Z"/>
          <path class="cls-3" d="M2212.73,350.99v-169.39h68.72c12.58,0,24.28,2.18,35.09,6.53,10.81,4.36,20.29,10.41,28.43,18.15,8.14,7.74,14.52,16.78,19.12,27.1,4.6,10.33,6.9,21.46,6.9,33.39s-2.3,22.75-6.9,32.91c-4.6,10.16-10.97,19.08-19.12,26.74-8.15,7.66-17.63,13.67-28.43,18.03-10.81,4.36-22.5,6.53-35.09,6.53h-68.72ZM2254.36,314.2h26.13c6.61,0,12.78-1.21,18.51-3.63,5.72-2.42,10.77-5.81,15.12-10.16,4.36-4.36,7.74-9.4,10.16-15.12,2.42-5.72,3.63-11.9,3.63-18.51s-1.21-13.11-3.63-19c-2.42-5.89-5.81-11.01-10.16-15.37-4.36-4.36-9.4-7.78-15.12-10.28-5.73-2.5-11.9-3.75-18.51-3.75h-26.13v95.83Z"/>
          <path class="cls-3" d="M2386.96,350.99v-169.39h39.2l76.95,98.25v-98.25h39.2v169.39h-36.78l-79.37-102.12v102.12h-39.2Z"/>
          <path class="cls-3" d="M2564.34,350.99v-169.39h41.62v169.39h-41.62Z"/>
          <path class="cls-3" d="M2627.99,350.99v-169.39h41.62v65.1h69.69v-65.1h41.62v169.39h-41.62v-66.31h-69.69v66.31h-41.62Z"/>
        </g>
        <g>
          <path class="cls-3" d="M1367.71,720.49v-297.81h92.32l73.6,140.4,73.6-140.4h92.32v297.81h-68.92v-202.94l-97.85,181.67-97.85-182.52v203.79h-67.22Z"/>
          <path class="cls-3" d="M1738.27,720.49v-297.81h234.85v63.39h-161.67v53.61h106.79v61.26h-106.79v56.16h163.37v63.39h-236.55Z"/>
          <path class="cls-3" d="M2116.92,724.75c-24.11,0-47.94-4.39-71.48-13.19-23.55-8.79-44.53-20.99-62.97-36.59l40.84-53.18c18.15,14.75,34.89,25.31,50.2,31.7,15.32,6.38,31.62,9.57,48.93,9.57,11.34,0,20.99-1.13,28.93-3.4,7.94-2.27,14.04-5.6,18.29-10,4.25-4.39,6.38-9.57,6.38-15.53,0-8.22-3.12-14.6-9.36-19.15-6.24-4.53-16.88-8.08-31.91-10.64l-65.52-11.49c-24.11-4.25-42.69-13.47-55.73-27.65-13.05-14.18-19.57-32.19-19.57-54.03,0-19.28,4.89-35.88,14.68-49.78,9.79-13.89,23.83-24.53,42.12-31.91,18.29-7.37,40.06-11.06,65.31-11.06,22.12,0,44.39,3.76,66.8,11.27,22.4,7.52,41.83,17.94,58.29,31.27l-38.72,54.03c-30.63-23.54-61.12-35.31-91.47-35.31-9.93,0-18.51,1.06-25.74,3.19s-12.76,5.11-16.59,8.93-5.74,8.44-5.74,13.83c0,7.38,2.77,13.05,8.3,17.02,5.53,3.98,14.53,7.09,27.02,9.36l61.69,10.21c28.64,4.54,50.42,14.04,65.31,28.51,14.89,14.46,22.34,33.18,22.34,56.16,0,20.14-5.25,37.51-15.74,52.12-10.5,14.61-25.53,25.89-45.1,33.82-19.57,7.94-42.83,11.91-69.77,11.91Z"/>
          <path class="cls-3" d="M2344.54,720.49v-233.15h-97.43v-64.67h268.03v64.67h-97.43v233.15h-73.18Z"/>
          <path class="cls-3" d="M2453.88,720.49l122.1-297.81h83.81l120.4,297.81h-79.13l-27.23-71.9h-116.15l-27.65,71.9h-76.16ZM2579.81,590.31h72.33l-35.74-95.3-36.59,95.3Z"/>
        </g>
      </g>
      <g>
        <path class="cls-2" d="M481.14,787.52V273.45l-139.07,55.63v-134.27l196.61-78.64h97.83v671.35h-155.37Z"/>
        <path class="cls-2" d="M991.35,798.07c-60.75,0-113.98-14.39-159.69-43.16-45.72-28.77-81.21-69.2-106.46-121.32-25.27-52.1-37.88-112.69-37.88-181.74s12.62-130.43,37.88-182.22c25.25-51.79,60.74-92.07,106.46-120.84,45.71-28.77,98.93-43.16,159.69-43.16s113.96,14.39,159.69,43.16c45.71,28.77,81.19,69.05,106.46,120.84,25.25,51.79,37.88,112.54,37.88,182.22s-12.63,129.64-37.88,181.74c-25.27,52.12-60.75,92.55-106.46,121.32-45.72,28.77-98.95,43.16-159.69,43.16ZM991.35,663.79c31.32,0,58.34-8.47,81.04-25.42,22.69-16.93,40.28-41.39,52.75-73.37,12.47-31.96,18.7-69.68,18.7-113.17s-6.23-82-18.7-113.65c-12.47-31.65-30.06-55.94-52.75-72.89-22.7-16.93-49.72-25.42-81.04-25.42s-58.35,8.48-81.04,25.42c-22.7,16.95-40.28,41.24-52.75,72.89-12.47,31.65-18.7,69.53-18.7,113.65s6.23,81.21,18.7,113.17c12.47,31.98,30.05,56.44,52.75,73.37,22.69,16.95,49.71,25.42,81.04,25.42Z"/>
      </g>
    </g>
  </g>
</svg>